<?xml version="1.0" encoding="UTF-8"?>
<svg id="Layer_2" data-name="Layer 2" xmlns="http://www.w3.org/2000/svg" viewBox="0 0 380.51 380.03">
  <defs>
    <style>
      .cls-1 {
        fill: #b39476;
      }

      .cls-2 {
        fill: #c7a98c;
      }

      .cls-3 {
        fill: #b59678;
      }

      .cls-4 {
        fill: #caae93;
      }

      .cls-5 {
        fill: #bb9d7f;
      }

      .cls-6 {
        fill: #c6a88b;
      }

      .cls-7 {
        fill: #cdaf93;
      }

      .cls-8 {
        fill: #c0a285;
      }

      .cls-9 {
        fill: #d3b69b;
      }

      .cls-10 {
        fill: #c5a78a;
      }

      .cls-11 {
        fill: #b09173;
      }

      .cls-12 {
        fill: #cfb195;
      }

      .cls-13 {
        fill: #bd9f81;
      }

      .cls-14 {
        fill: #bfa083;
      }

      .cls-15 {
        fill: #bea082;
      }

      .cls-16 {
        fill: #be9f82;
      }

      .cls-17 {
        fill: #cbad91;
      }

      .cls-18 {
        fill: #c9ab8e;
      }

      .cls-19 {
        fill: #c8aa8e;
      }

      .cls-20 {
        fill: #ba9c7e;
      }

      .cls-21 {
        fill: #c0a184;
      }

      .cls-22 {
        fill: #bd9f82;
      }

      .cls-23 {
        fill: #c1a386;
      }

      .cls-24 {
        fill: #b99a7c;
      }

      .cls-25 {
        fill: #b99b7d;
      }

      .cls-26 {
        fill: #caac8f;
      }

      .cls-27 {
        fill: #bb9c7f;
      }

      .cls-28 {
        fill: #ba9b7e;
      }

      .cls-29 {
        fill: #c3a588;
      }

      .cls-30 {
        fill: #c2a487;
      }

      .cls-31 {
        fill: #c9ab8f;
      }

      .cls-32 {
        fill: #c6a78b;
      }

      .cls-33 {
        fill: #b7997b;
      }

      .cls-34 {
        fill: #d1b398;
      }

      .cls-35 {
        fill: #fefefe;
      }

      .cls-36 {
        fill: #c5a78b;
      }

      .cls-37 {
        fill: #bc9e80;
      }

      .cls-38 {
        fill: #c0a386;
      }
    </style>
  </defs>
  <g id="Layer_1-2" data-name="Layer 1">
    <g>
      <path class="cls-33" d="M104.12,191.89c.5,1.35.64,13.53-1.19,16.47-.24.38-.51.61-.81.64-1.41.19-5.65.04-6.04,1.66-.36,1.52-.38,22.23-.02,23.77.28,1.19,1.57.34,2.06.57l2.62-.1c.88,40.85.81,81.29-.21,121.33l-2.41-.23c-8.39-4.64-13.54-8.46-21-14l-2-3.23c-.08-99.34-.03-198.68.15-298.01l1.85-2.76c6.66-4.92,10.68-7.71,18-12,3.14,31.84,2.98,64.15,0,96,.03,8.32-.02,16.68-.01,25.01,1.64-.12,3.4.17,5.01-.01.32-.07.63-.11.92-.11,1.51-.05,2.59.62,3.32,1.7,2.33,3.45,1.18,11.08-1.24,13.41-1.29.16-6.93.84-7.06,1.58l.05,27.43c2,.05,4.02-.08,6.01-.01.64.08,1.46.21,1.83.63h.01c.07.08.12.16.16.26Z"/>
      <path class="cls-3" d="M77.12,38v304c-8.93-6.63-14.06-10.94-22-19-1.24-1.51-1.3-2.68.09-3.79.28-88.85.25-176.25-.09-262.21,8.14-8.28,12.8-12.2,22-19Z"/>
      <path class="cls-12" d="M331.12,63l2,4.8c.06,81.67.02,163.32-.12,244.96l-1.88,4.24c-7.67,8.48-12.04,12.74-21,20l-2-.96V44.25l2-1.25c9.2,7.42,13.24,11.41,21,20Z"/>
      <path class="cls-1" d="M55.12,57c3.02-.56,1.94,1.53,2,3.45,2.87,85.8-2.15,173.13,0,259.09l-2,3.45c-9.44-9.58-14.57-15.95-22-27l-2-6.66V90.66l2-6.66c7.62-11.3,12.43-17.27,22-27Z"/>
      <path class="cls-7" d="M310.12,43v294c-6.67,5.4-10.75,8.39-18,13l-2-.95V31.24l2-1.24c7.24,4.61,11.33,7.62,18,13Z"/>
      <path class="cls-34" d="M354.12,94l1.53,6.21c-1.74,43.95-1.75,88.18-.03,132.68.18,17.07.27,35.26-.5,51.11-7.81,13.65-13.49,21.37-24,33V63c9.84,10.9,15.46,18.16,23,31Z"/>
      <path class="cls-11" d="M33.12,296c-44.12-65.63-44.19-146.44,0-212v212Z"/>
      <path class="cls-17" d="M292.12,30v320c-6.44,4.09-12,7.64-19,11l-2.01-.66c-.75-35.47-1.34-70.94-1.78-106.41l1.79-1.93c7.38-4.89,13.45-16.02,13-25-3.74-.37-7.32.67-11,1-1.25-1.91-1.88-8.65-.38-11.64.34-.68.79-1.17,1.38-1.36l11-2v-27H105.12c-3.46-3.58,8.69-4.86,11-2,.85.31,1.73.46,2.67.42,2.28-.1,4.57-.21,6.87-.31,5.58-.25,11.19-.48,16.83-.67,10.47-.35,21.03-.56,31.63-.41,5.06.07,10.05.99,15,1.97,7.64-1.96,15.36-1.96,23,0,10.67-2.49,21.32-2.46,32,0,8.53-2.14,17.27-2.23,26.01-1.98.75-.01.5-13.41-2.66-14.01h-.05c-.06-.02-.11-.02-.17-.02l17.88-1.99v-25.01c-2.31.14-4.71-.19-7.01.01l-1.99-.71c.32-39.35.65-78.72.98-118.09l2.01-1.2c4.83,2.53,8.65,5.23,13,8Z"/>
      <path class="cls-36" d="M242.19,142.97c-.1,1.97-1.45,3.31-4.07,4.03-8.65.97-17.35,2.03-26,3-2.03-1.03-1.23-2.52.17-3.74-.47-36.41-.17-72.9.89-109.48l-1.06-35.78c9.85,1.07,18.56,3.48,28,6l2,1.22.07,134.75Z"/>
      <path class="cls-9" d="M355.12,284l-2.04-8.46c2.24-56.42-2.82-114.92,0-171.09.18-3.56,1.37-6.87,1.05-10.45,34.87,59.42,35.17,130.32,1,190Z"/>
      <path class="cls-29" d="M214.19,146.59l-2.07,3.41c-5.99.67-12.01,1.33-18,2-1.07-1.63-.32-2.76,2.25-3.38l-.34-10.1-.02-.44,2.11-1.08c-1.19-4.7,9.69-3.09,13-2.5v-24.5c-7.02.31-14.01,1.31-21,2l-2-.69V1.22L190.12,0c7.37-.02,14.68.2,22,1,1.9.95,1.93,1.38,2.07,3.41,3.2,46.03-2.59,95.75,0,142.18Z"/>
      <path class="cls-14" d="M179.12,238c-.66.06-1.35-.07-2,0l-5,1c-1.13.25-2.76-.2-4.01-.01v27.02c2.64-.15,5.38.19,8.01-.01.88,3.11,1.78,6.28,1.83,9.54.51,34.05.51,68.59.28,102.33-.56.78-1.37,1.2-2.45,1.27h-.02c-.36.02-.75,0-1.17-.07-.14-.02-.3-.04-.47-.07-7.66-.63-13.46-1.5-21-3-1.17-1.07-.83-2.3,1-3.68v-143.09l2-1.23c4.07-.46,8.16-.57,12-1,.38-.17.77-.32,1.16-.45.24-.07.49-.14.73-.2.25-.06.49-.11.74-.16.25-.04.5-.08.75-.11.26-.03.51-.05.77-.06.17-.01.34-.02.51-.02h.34c1.3-.15,2.7.15,4,0,.69-.24,1.29-.29,1.8-.2.5.07.93.3,1.28.63,2.47,2.31,1.36,9.84-1.08,11.57Z"/>
      <path class="cls-5" d="M140.12,230.71c-.33,46.68-.66,93.37-.99,140.07l-2.01,1.22c-7.74-2.23-12.54-3.93-20-7l-1.03-1.69,1.33-67.76c.92-21.16.16-42.01-2.3-62.55,7.34-.8,15.35-2.16,23-3l2,.71Z"/>
      <path class="cls-19" d="M263.11,15.91c-.33,41.96-.66,84.93-.98,126.88l-2.01,1.21c-7.27.8-14.66,2.18-22,3l2.07-3.41-.07-136.59c8.28,2.21,13.11,3.81,21,7l1.99,1.91Z"/>
      <path class="cls-13" d="M156.12,228v145.55l-3,2.45c-6.15-1.22-10.07-2.29-16-4l1-142c5.99-.65,12.01-1.33,18-2Z"/>
      <path class="cls-8" d="M190.12,0v112c-7.31.72-14.69,1.27-22,2l-2-.69V5.66c-1.45-1.09-1.79-2.31-1-3.66C173.59.91,181.31.02,190.12,0Z"/>
      <path class="cls-25" d="M118.14,359.51c-.02,1.7.64,4.45-1.02,5.49-7.25-2.98-12.11-5.19-19-9,1.66-1.04,1-3.79,1.02-5.49.39-37.68-.37-75.39.03-113.08-.14-1.23.37-1.76-1.05-2.43,5.13-2.2,11.73-1.42,17-2,3.5-.12,2.76-.62,3,2.45,2.98,37.84.43,85.32.02,124.06Z"/>
      <path class="cls-18" d="M273.12,361c-7.28,3.49-14.33,6.43-22,9l-2.01-.68c-.32-36.68-.65-73.38-.98-110.08l1.99-1.24c6.93-.99,15.03-2.05,21-6l2,109Z"/>
      <path class="cls-26" d="M279.12,22l-1,120c-5.82.5-12.15,1.35-18,2l1-130c6.19,2.5,11.94,4.82,18,8Z"/>
      <path class="cls-15" d="M168.12,4.45v109.55l-20,2-2-.69V6.21l2-1.21c6.32-1.4,10.55-2.17,17-3l3,2.45Z"/>
      <path class="cls-10" d="M234.12,373.78l-2,1.22c-7.06,1.55-13.75,3.24-21,4-1.57-.75-1.55-2.12.07-4.1l-.07-111.68,2-1.22c6.22-.66,12.83-1.25,19-2,.78-.01,1.99.21,2,.69.65,37.26.65,75.82,0,113.09Z"/>
      <path class="cls-23" d="M174.12,379c.33.03.66.05.99.08-.15.02-.32.01-.52-.01-.14-.02-.3-.04-.47-.07Z"/>
      <path class="cls-23" d="M197.12,264.7v114.07l-2,1.23c-6.73.17-12.98-.34-19.34-.86h-.02c-.21-.02-.43-.04-.65-.06,1.77-.07.96-1.86,1.01-3.53,1.22-36.44-.91-73.11,0-109.55,6.16-.47,12.82-1.37,19-2l2,.7Z"/>
      <path class="cls-2" d="M251.12,370c-6.96,2.33-11.91,3.45-19,5v-115c5.64-.68,12.45-1.2,18-2l1,112Z"/>
      <path class="cls-29" d="M213.19,375.59l-2.07,3.41c-5.29.55-10.67.87-16,1v-116c5.71-.59,12.06-1.37,18-2l.07,113.59Z"/>
      <path class="cls-27" d="M133.95,108.49c-.05,3.24-.95,6.41-1.83,9.51-6.65.69-13.35,1.32-20,2-2.03-1.03-1.22-2.5.17-3.75.07-33.32.02-66.4-.17-99.25,6.55-2.96,11.14-4.75,18-7l.87-.09h.03l2.76-.27c1.06,32.39.69,65.98.17,98.85Z"/>
      <path class="cls-24" d="M114.19,116.59l-2.07,3.41c-5.67.58-11.4.88-17,2-.12-31.93.09-64.03,0-96,6.17-3.62,10.22-5.94,17-9,2.28.7,1.95,2.58,2.06,4.45,1.78,31.08-1.51,63.87.01,95.14Z"/>
      <path class="cls-37" d="M148.12,5v111c-.33.87-.67.87-1,0l-3.72.74-1.28.26c-3.33.34-6.67.65-10,1-.87-34.78,1.16-69.78,0-104.55-.05-1.69.78-3.52-1.1-3.54h-.03c-.24,0-.53.03-.87.09,6.6-2.17,11.16-3.49,18-5Z"/>
      <path class="cls-35" d="M116.12,184c-3.65.4-7.31.99-11,1.01v.99c-3.46-3.58,8.69-4.86,11-2Z"/>
      <path class="cls-35" d="M133.12,159c-9.94,1.16-20.08,1.78-30,3,8.72-4.21,20.55-5.07,30-3Z"/>
      <path class="cls-35" d="M134.12,206c-10.59,1.1-21.47,1.6-32,3,.27-.22.54-.43.81-.64,1.16-.88,2.42-1.66,3.85-1.93,8.19-1.61,19.53-2.42,27.34-.43Z"/>
      <path class="cls-35" d="M179.12,178c-12.07,2.73-24.28,4.54-36.63,5.44-5.58.41-11.19.64-16.83.67-3.17.02-6.35-.01-9.54-.11,20.97-2.29,41.98-4.07,63-6Z"/>
      <path class="cls-35" d="M133.12,191c-8.7,2.94-20.19,3.43-29.16.64h-.01c-.62-.2-1.23-.41-1.83-.64,10.27.36,20.71-.04,31,0Z"/>
      <path class="cls-35" d="M159.12,156c-8.66.99-17.35,1.99-26,3,8.42-2.96,17.13-3.96,26-3Z"/>
      <path class="cls-35" d="M174.12,202c-13.32,1.32-26.68,2.61-40,4,12.99-4.11,26.45-5.42,40-4Z"/>
      <path class="cls-35" d="M174.12,191c-13.59,2.74-27.41,2.79-41,0,13.65.05,27.35-.01,41,0Z"/>
      <path class="cls-35" d="M212.12,222c-9.58,3.97-21.41,5.61-31.92,4.43-.33-.03-.65-.07-.97-.12-.71-.09-1.42-.19-2.11-.31.69-.24,1.29-.29,1.8-.2,10.87-1.23,22.2-2.53,33.2-3.8Z"/>
      <path class="cls-35" d="M185.12,153c-8.66.99-17.35,2.01-26,3,.15-.04.3-.09.44-.15h.01c8.28-2.84,16.84-3.79,25.55-2.85Z"/>
      <path class="cls-35" d="M183.9,177c-1.68.01-3.27.34-4.78,1,.81-1.55,3.18-1,4.78-1Z"/>
      <path class="cls-35" d="M189.12,177c-.5,2.96-4.39,2.79-5,0,1.64-.15,3.36.14,5,0Z"/>
      <path class="cls-35" d="M194.12,152c-2.99.34-6.01.66-9,1,2.75-2.29,5.82-2.62,9-1Z"/>
      <path class="cls-35" d="M199.12,176c-1.52,2.48-5.63,3.45-8.36,2.21-.64-.27-1.2-.68-1.64-1.21,3.1-.27,6.61-.77,10-1Z"/>
      <path class="cls-35" d="M204.12,175l-.85.17-4.15.83c.85-1.62,3.4-.94,5-1Z"/>
      <path class="cls-35" d="M208.12,175c-1.01,2.73-2.98,2.71-4,0,1.3-.1,2.69-.02,4,0Z"/>
      <path class="cls-35" d="M247.12,218c-9.73,3.96-21.35,5.55-31.94,4.41-.32-.03-.64-.07-.95-.11-.71-.09-1.41-.19-2.11-.3.68-.24,1.28-.3,1.79-.21,10.88-1.25,22.2-2.51,33.21-3.79Z"/>
      <path class="cls-35" d="M225.12,197c-17.01,1.49-34.01,3.31-51,5,16.39-4.73,34.01-6.58,51-5Z"/>
      <path class="cls-35" d="M223.12,191c-16.3,2.47-32.7,2.49-49,0,16.32.02,32.68-.02,49,0Z"/>
      <path class="cls-35" d="M229.4,196.15c-1.02.24-2.78.71-4.28.85l4.28-.85Z"/>
      <path class="cls-35" d="M235.12,196c-1.66.06-3.35-.13-5,0,.93-2.8,4.06-2.76,5,0Z"/>
      <path class="cls-35" d="M238.12,172l-2.11,1.93c-7.72.13-15.43,1.01-23.03,2.01-.22-.4-.51-.71-.86-.93-.01-.01-.02-.02-.04-.02-.77-.48-1.84-.55-3.21-.21,3.54-.98,8.16-1.43,11.76-1.77,5.51-.54,12.06-1.32,17.49-1.01Z"/>
      <path class="cls-35" d="M240.12,195c-.85,1.62-3.39.94-5,1l5-1Z"/>
      <path class="cls-35" d="M244.12,195c-1.32.08-2.67-.03-4,0,.59-2.17,3.36-2.11,4,0Z"/>
      <path class="cls-35" d="M267.12,169l-2.25,1.94c-9.1.94-18.02,1.29-26.75,1.06,3.25-1.14,8-1.63,11.51-1.99,5.52-.56,12.02-1.27,17.49-1.01Z"/>
      <path class="cls-35" d="M274.12,215c-.41.47-.86.98-1.38,1.36-.36.27-.76.49-1.2.6-1.96.49-19.4,2.73-20.41,2.52-.37-.87-.85-1.33-1.44-1.53-.32-.12-.67-.15-1.05-.14,8.15-1.07,16.95-3.18,25.48-2.81Z"/>
      <path class="cls-35" d="M276.11,191.01c-.55,1.35-5.15,1.69-6.61,1.87-8.1,1-17.2,1.61-25.38,2.12.72-.36,1.35-.7,1.87-1.01,4.62-2.76,1.42-3.6-9.63-2.5l-13.24-.49c17.65.02,35.34-.02,52.99.01Z"/>
      <path class="cls-35" d="M129.12,144c-.79.85-1.68,1.73-2.85,2-4.57,1.06-16.1,2.29-21.91,2.59-.43.02-.82.04-1.18.05-.74-1.16-1.74-1.76-3.06-1.64.32-.07.63-.11.92-.11,9.02-1.06,18.8-3.1,28.08-2.89Z"/>
      <path class="cls-35" d="M147.12,116c-.81,1.55-3.18,1-4.78,1,1.69,0,3.27-.34,4.78-1Z"/>
      <path class="cls-35" d="M148.12,116c-.33.87-.67.87-1,0,.33-.03.67.03,1,0Z"/>
      <path class="cls-35" d="M168.12,114l-20,2c6.65-.68,13.35-1.34,20-2Z"/>
      <path class="cls-35" d="M159.12,141l-2.71,2.22c-7.37.14-14.65.68-21.84,1.64-.2.03-.39.05-.59.08-.22-.4-.51-.71-.86-.93-.01-.01-.02-.02-.04-.02-.27-.17-.58-.29-.94-.36-.63-.12-1.39-.07-2.27.15,3.53-.98,8.18-1.43,11.76-1.77,5.7-.54,11.89-.48,17.49-1.01Z"/>
      <path class="cls-35" d="M178.12,139c-5.14,3.32-11.91,4.28-17.76,2.43-.42-.12-.83-.27-1.24-.43,6.24-.59,12.74-1.36,19-2Z"/>
      <path class="cls-35" d="M182.9,138c-1.69,0-3.27.34-4.78,1,.81-1.55,3.18-1,4.78-1Z"/>
      <path class="cls-35" d="M184.12,138c-.08.21-.15.36-.23.47-.26.35-.52.19-.77-.47.33-.03.67.03,1,0Z"/>
      <path class="cls-35" d="M198.12,137c-.59.61-1.3,1.12-2.09,1.52-3.57,1.84-8.81,1.64-11.91-.52,4.69-.49,9.39-.56,14-1Z"/>
      <path class="cls-35" d="M211.12,134.5c0,2.34-8.56,1.27-10.58,1.46-1.29.12-2.23,1.02-2.42,1.04-1.19-4.7,9.69-3.09,13-2.5Z"/>
      <path class="cls-28" d="M134.12,206c-10.59,1.1-21.47,1.6-32,3v-18c10.27.36,20.71-.04,31,0,2.16,1.59,2.79,4.75,1.9,9.47.75,2.5.45,4.34-.9,5.53Z"/>
      <path class="cls-20" d="M133.12,159c-9.94,1.16-20.08,1.78-30,3-.96-4.32,2.62-14.28-3-15,.31-.03.61-.07.92-.11,9.02-1.06,18.8-3.1,28.08-2.89l3.02-.37,1.33-.16c.43.08.81.6,1.1,1.39,1.39,3.63,1.28,13.11-1.45,14.14Z"/>
      <path class="cls-35" d="M177.12,238c-.85,1.62-3.4.94-5,1l5-1Z"/>
      <path class="cls-35" d="M214.12,234c-11.67,1.27-23.28,2.86-35,4,10.75-4.18,23.61-5.86,35-4Z"/>
      <path class="cls-35" d="M245.12,231c-10.3,1.09-20.71,1.88-31,3,9.47-4.09,20.89-5.03,31-3Z"/>
      <path class="cls-35" d="M273.12,228c-9.33.83-18.68,2.01-28,3,.94-.35,1.9-.69,2.86-1.02h.01c.75-.26,1.51-.51,2.27-.74,7.38-2.26,15.22-3.41,22.86-1.24Z"/>
      <path class="cls-18" d="M272.13,168.99v16.02c-9.33.01-18.69-.04-28.01-.01-2.15-1.59-2.75-4.88-1.78-9.86-2.47-.6-3.88-1.65-4.22-3.14,3.25-1.14,8-1.63,11.51-1.99,5.52-.56,12.02-1.27,17.49-1.01.1.01.2.01.3.01h.05c1.55.05,3.12-.08,4.66-.02Z"/>
      <path class="cls-32" d="M244.12,185c-10.65.03-21.35-.02-32,0l-2-1.09c.62-3.64-.05-6.61-2-8.91.22-.07.46-.14.69-.2.02-.01.04-.01.06-.02,3.54-.98,8.16-1.43,11.76-1.77,5.51-.54,12.06-1.32,17.49-1.01,9.87.57,4.99,4.88,6,13Z"/>
      <path class="cls-38" d="M189.12,185c-22.48,0-45.02.25-67.51.02-1.7-.02-4.45.64-5.49-1.02,20.97-2.29,41.98-4.07,63-6l3.81-.76s.02,0,.03-.01l1.16-.23c1.64-.15,3.36.14,5,0,.72.1,1.27.56,1.64,1.21,1.2,2.12.6,6.29-1.64,6.79Z"/>
      <path class="cls-31" d="M273.12,228c-9.33.83-18.68,2.01-28,3-1.77-1.64-.71-2.81,3.19-3.53.33-.34.05-8.46-1.19-9.47.5-.06.99-.12,1.49-.19h.03c8.15-1.07,16.95-3.18,25.48-2.81-.32,4.28.93,9.06-1,13Z"/>
      <path class="cls-30" d="M212.12,174.99v10.01c-7.65.01-15.35,0-23,0v-8c3.1-.27,6.61-.77,10-1l4.15-.83.85-.17c1.3-.1,2.69-.02,4,0,1.32.02,2.65-.03,3.96-.01h.04Z"/>
      <path class="cls-30" d="M198.18,150.43c-.23,1.25-3.58-.06-4.06,1.57-2.99.34-6.01.66-9,1-2.93-2.03-2.76-11.05-1.23-14.53.07-.17.15-.33.23-.47,4.69-.49,9.39-.56,14-1-.54,4.04.74,9.69.06,13.43Z"/>
      <path class="cls-30" d="M214.12,234c-11.67,1.27-23.28,2.86-35,4-.38-1.95.43-9.89.11-11.69-.03-.15-.06-.26-.11-.32-.13-.16-1.44.1-2,.01.6-.07,1.2-.14,1.8-.2,10.87-1.23,22.2-2.53,33.2-3.8.68-.24,1.28-.3,1.79-.21.5.08.92.29,1.27.62,2.49,2.28,1.38,9.85-1.06,11.59Z"/>
      <path class="cls-30" d="M173.12,226c-1.12.13-2.96.77-5,1,.38-.17.77-.32,1.16-.45.24-.07.49-.14.73-.2.25-.06.49-.11.74-.16.25-.04.5-.08.75-.11.26-.03.51-.05.77-.06.17-.01.34-.02.51-.02h.34Z"/>
      <path class="cls-30" d="M177.12,238c-.85,1.62-3.4.94-5,1,1.95-.43,2.58-.75,5-1Z"/>
      <path class="cls-15" d="M147.12,116c-.81,1.55-3.18,1-4.78,1h-.22c.35-.04.78-.13,1.28-.26,1.02-.25,2.32-.6,3.72-.74Z"/>
      <path class="cls-16" d="M174.12,202c-13.32,1.32-26.68,2.61-40,4-2.02-4.56-.61-10.08-1-15,13.65.05,27.35-.01,41,0,3.16.68,3.02,10.05,0,11Z"/>
      <path class="cls-30" d="M245.99,193.99c-.31.45-.94.76-1.87,1.01-1.32.08-2.67-.03-4,0l-5,1c-1.66.06-3.35-.13-5,0-.03,0-.07.01-.12.02-.12.02-.29.05-.5.1-.03.01-.07.02-.1.03l-4.28.85c-17.01,1.49-34.01,3.31-51,5v-11c16.32.02,32.68-.02,49,0,7.54.45,15.11.71,22.71.8.48.99.52,1.69.16,2.19Z"/>
      <path class="cls-6" d="M250.26,229.24c-.03.43-.08.7-.14.76-.2.18-1.12.03-2.13-.02h-.01c-1.2-.07-2.51.03-2.86,1.02-10.3,1.09-20.71,1.88-31,3-.38-1.95.43-9.92.11-11.7-.03-.15-.07-.25-.11-.31-.13-.16-1.44.1-2,.01.6-.07,1.19-.14,1.79-.21,10.88-1.25,22.2-2.51,33.21-3.79,1.49-.05,2.21-.17,2.57-.05.47.16.29.75.43,2.5.1,1.24.27,6.75.14,8.79Z"/>
      <path class="cls-22" d="M159.57,155.85h-.01c-.14.06-.29.11-.44.15-8.66.99-17.35,1.99-26,3v-15.01h-.04c-1.31-.03-2.64.04-3.96.01.22-.07.46-.14.69-.2.02-.01.04-.01.06-.02,3.53-.98,8.18-1.43,11.76-1.77,5.7-.54,11.89-.48,17.49-1.01.46.02.87.17,1.24.43,3.29,2.27,2.89,12.77-.79,14.42Z"/>
      <path class="cls-21" d="M185.12,153c-8.66.99-17.35,2.01-26,3,1.46-4.17,1.85-10.94,0-15,6.24-.59,12.74-1.36,19-2l3.72-.74,1.28-.26c.33-.03.67.03,1,0,1.67,4.82.83,9.99,1,15Z"/>
      <path class="cls-4" d="M276.11,191.01c-.55,1.35-5.15,1.69-6.61,1.87-8.1,1-17.2,1.61-25.38,2.12.12-3.5.62-2.76-2.45-3-5.97-.47-12.98,1.19-18.55-1,17.65.02,35.34-.02,52.99.01Z"/>
      <path class="cls-4" d="M240.12,195c-.85,1.62-3.39.94-5,1,.84-1.6,3.39-.97,5-1Z"/>
      <path class="cls-4" d="M230.12,196s-.07.01-.12.02c-.12.02-.29.05-.5.1-.03.01-.07.02-.1.03-1.02.24-2.78.71-4.28.85.85-1.62,3.4-.94,5-1Z"/>
      <path class="cls-32" d="M204.12,175c-.22.02-.51.08-.85.17-1.01.25-2.49.72-4.15.83.85-1.62,3.4-.94,5-1Z"/>
      <path class="cls-30" d="M184.12,177c-.3.02-.69.12-1.16.23-.01.01-.02.01-.03.01-1.02.26-2.39.63-3.81.76.81-1.55,3.18-1,4.78-1h.22Z"/>
      <path class="cls-30" d="M183.12,138c-.35.04-.78.13-1.28.26-1.02.25-2.32.6-3.72.74.81-1.55,3.18-1,4.78-1h.22Z"/>
    </g>
  </g>
</svg>